HIERARCHY
ROOT Hips
{
  OFFSET 204.265 91.6562 932.031
  CHANNELS 6 Xposition Yposition Zposition Zrotation Xrotation Yrotation
  JOINT Spine
  {
    OFFSET 0 8 0
    CHANNELS 6 Xposition Yposition Zposition Zrotation Xrotation Yrotation
    JOINT Spine1
    {
      OFFSET 0 8 0
      CHANNELS 6 Xposition Yposition Zposition Zrotation Xrotation Yrotation
      JOINT Spine2
      {
        OFFSET 0 8 0
        CHANNELS 6 Xposition Yposition Zposition Zrotation Xrotation Yrotation
        JOINT Spine3
        {
          OFFSET 0 8 0
          CHANNELS 6 Xposition Yposition Zposition Zrotation Xrotation Yrotation
          JOINT Neck
          {
            OFFSET 0 17 0
            CHANNELS 6 Xposition Yposition Zposition Zrotation Xrotation Yrotation
            JOINT Head
            {
              OFFSET 0 10.8 0
              CHANNELS 6 Xposition Yposition Zposition Zrotation Xrotation Yrotation
              End Site
              {
                OFFSET 0 20.25 0
              }
            }
          }
          JOINT LeftShoulder
          {
            OFFSET 5 17 0
            CHANNELS 6 Xposition Yposition Zposition Zrotation Xrotation Yrotation
            JOINT LeftShoulder2
            {
              OFFSET 6.45 0 0
              CHANNELS 6 Xposition Yposition Zposition Zrotation Xrotation Yrotation
              JOINT LeftArm
              {
                OFFSET 6.45 0 0
                CHANNELS 6 Xposition Yposition Zposition Zrotation Xrotation Yrotation
                JOINT LeftForeArm
                {
                  OFFSET 0 -32.4 -2
                  CHANNELS 6 Xposition Yposition Zposition Zrotation Xrotation Yrotation
                  JOINT LeftHand
                  {
                    OFFSET 0 -25.65 2
                    CHANNELS 6 Xposition Yposition Zposition Zrotation Xrotation Yrotation
                    JOINT LeftHandThumb1
                    {
                      OFFSET -0.5 -1.5 2.65
                      CHANNELS 6 Xposition Yposition Zposition Zrotation Xrotation Yrotation
                      JOINT LeftHandThumb2
                      {
                        OFFSET 0 -3.8 3.7
                        CHANNELS 6 Xposition Yposition Zposition Zrotation Xrotation Yrotation
                        JOINT LeftHandThumb3
                        {
                          OFFSET 0 -3 2.7
                          CHANNELS 6 Xposition Yposition Zposition Zrotation Xrotation Yrotation
                          End Site
                          {
                            OFFSET 0 -2.3 1.8
                          }
                        }
                      }
                    }
                    JOINT LeftHandIndex
                    {
                      OFFSET 0 -1.9 1.6
                      CHANNELS 6 Xposition Yposition Zposition Zrotation Xrotation Yrotation
                      JOINT LeftHandIndex1
                      {
                        OFFSET 0 -8.3 1.9
                        CHANNELS 6 Xposition Yposition Zposition Zrotation Xrotation Yrotation
                        JOINT LeftHandIndex2
                        {
                          OFFSET 0 -4.5 0
                          CHANNELS 6 Xposition Yposition Zposition Zrotation Xrotation Yrotation
                          JOINT LeftHandIndex3
                          {
                            OFFSET 0 -3.4 0
                            CHANNELS 6 Xposition Yposition Zposition Zrotation Xrotation Yrotation
                            End Site
                            {
                              OFFSET 0 -2.6 0
                            }
                          }
                        }
                      }
                    }
                    JOINT LeftHandMiddle
                    {
                      OFFSET -0.25 -2.2 0.4
                      CHANNELS 6 Xposition Yposition Zposition Zrotation Xrotation Yrotation
                      JOINT LeftHandMiddle1
                      {
                        OFFSET 0 -8.3 1
                        CHANNELS 6 Xposition Yposition Zposition Zrotation Xrotation Yrotation
                        JOINT LeftHandMiddle2
                        {
                          OFFSET 0 -4.65 0
                          CHANNELS 6 Xposition Yposition Zposition Zrotation Xrotation Yrotation
                          JOINT LeftHandMiddle3
                          {
                            OFFSET 0 -3.3 0
                            CHANNELS 6 Xposition Yposition Zposition Zrotation Xrotation Yrotation
                            End Site
                            {
                              OFFSET 0 -2.7 0
                            }
                          }
                        }
                      }
                    }
                    JOINT LeftHandRing
                    {
                      OFFSET -0.5 -2.15 -0.8
                      CHANNELS 6 Xposition Yposition Zposition Zrotation Xrotation Yrotation
                      JOINT LeftHandRing1
                      {
                        OFFSET 0 -7.75 -0.2
                        CHANNELS 6 Xposition Yposition Zposition Zrotation Xrotation Yrotation
                        JOINT LeftHandRing2
                        {
                          OFFSET 0 -3.8 0
                          CHANNELS 6 Xposition Yposition Zposition Zrotation Xrotation Yrotation
                          JOINT LeftHandRing3
                          {
                            OFFSET 0 -3.4 0
                            CHANNELS 6 Xposition Yposition Zposition Zrotation Xrotation Yrotation
                            End Site
                            {
                              OFFSET 0 -2.6 0
                            }
                          }
                        }
                      }
                    }
                    JOINT LeftHandPinky
                    {
                      OFFSET -0.75 -1.75 -1.85
                      CHANNELS 6 Xposition Yposition Zposition Zrotation Xrotation Yrotation
                      JOINT LeftHandPinky1
                      {
                        OFFSET 0 -7.15 -1
                        CHANNELS 6 Xposition Yposition Zposition Zrotation Xrotation Yrotation
                        JOINT LeftHandPinky2
                        {
                          OFFSET 0 -3 0
                          CHANNELS 6 Xposition Yposition Zposition Zrotation Xrotation Yrotation
                          JOINT LeftHandPinky3
                          {
                            OFFSET 0 -2.35 0
                            CHANNELS 6 Xposition Yposition Zposition Zrotation Xrotation Yrotation
                            End Site
                            {
                              OFFSET 0 -2.1 0
                            }
                          }
                        }
                      }
                    }
                  }
                }
              }
            }
          }
          JOINT RightShoulder
          {
            OFFSET -5 17 0
            CHANNELS 6 Xposition Yposition Zposition Zrotation Xrotation Yrotation
            JOINT RightShoulder2
            {
              OFFSET -6.45 0 0
              CHANNELS 6 Xposition Yposition Zposition Zrotation Xrotation Yrotation
              JOINT RightArm
              {
                OFFSET -6.45 0 0
                CHANNELS 6 Xposition Yposition Zposition Zrotation Xrotation Yrotation
                JOINT RightForeArm
                {
                  OFFSET 0 -32.4 -2
                  CHANNELS 6 Xposition Yposition Zposition Zrotation Xrotation Yrotation
                  JOINT RightHand
                  {
                    OFFSET 0 -25.65 2
                    CHANNELS 6 Xposition Yposition Zposition Zrotation Xrotation Yrotation
                    JOINT RightHandThumb1
                    {
                      OFFSET 0.5 -1.5 2.65
                      CHANNELS 6 Xposition Yposition Zposition Zrotation Xrotation Yrotation
                      JOINT RightHandThumb2
                      {
                        OFFSET 0 -3.8 3.7
                        CHANNELS 6 Xposition Yposition Zposition Zrotation Xrotation Yrotation
                        JOINT RightHandThumb3
                        {
                          OFFSET 0 -3 2.7
                          CHANNELS 6 Xposition Yposition Zposition Zrotation Xrotation Yrotation
                          End Site
                          {
                            OFFSET 0 -2.3 1.8
                          }
                        }
                      }
                    }
                    JOINT RightHandIndex
                    {
                      OFFSET 0 -1.9 1.6
                      CHANNELS 6 Xposition Yposition Zposition Zrotation Xrotation Yrotation
                      JOINT RightHandIndex1
                      {
                        OFFSET 0 -8.3 1.9
                        CHANNELS 6 Xposition Yposition Zposition Zrotation Xrotation Yrotation
                        JOINT RightHandIndex2
                        {
                          OFFSET 0 -4.5 0
                          CHANNELS 6 Xposition Yposition Zposition Zrotation Xrotation Yrotation
                          JOINT RightHandIndex3
                          {
                            OFFSET 0 -3.4 0
                            CHANNELS 6 Xposition Yposition Zposition Zrotation Xrotation Yrotation
                            End Site
                            {
                              OFFSET 0 -2.6 0
                            }
                          }
                        }
                      }
                    }
                    JOINT RightHandMiddle
                    {
                      OFFSET 0.25 -2.2 0.4
                      CHANNELS 6 Xposition Yposition Zposition Zrotation Xrotation Yrotation
                      JOINT RightHandMiddle1
                      {
                        OFFSET 0 -8.3 1
                        CHANNELS 6 Xposition Yposition Zposition Zrotation Xrotation Yrotation
                        JOINT RightHandMiddle2
                        {
                          OFFSET 0 -4.65 0
                          CHANNELS 6 Xposition Yposition Zposition Zrotation Xrotation Yrotation
                          JOINT RightHandMiddle3
                          {
                            OFFSET 0 -3.3 0
                            CHANNELS 6 Xposition Yposition Zposition Zrotation Xrotation Yrotation
                            End Site
                            {
                              OFFSET 0 -2.7 0
                            }
                          }
                        }
                      }
                    }
                    JOINT RightHandRing
                    {
                      OFFSET 0.5 -2.15 -0.8
                      CHANNELS 6 Xposition Yposition Zposition Zrotation Xrotation Yrotation
                      JOINT RightHandRing1
                      {
                        OFFSET 0 -7.75 -0.2
                        CHANNELS 6 Xposition Yposition Zposition Zrotation Xrotation Yrotation
                        JOINT RightHandRing2
                        {
                          OFFSET 0 -3.8 0
                          CHANNELS 6 Xposition Yposition Zposition Zrotation Xrotation Yrotation
                          JOINT RightHandRing3
                          {
                            OFFSET 0 -3.4 0
                            CHANNELS 6 Xposition Yposition Zposition Zrotation Xrotation Yrotation
                            End Site
                            {
                              OFFSET 0 -2.6 0
                            }
                          }
                        }
                      }
                    }
                    JOINT RightHandPinky
                    {
                      OFFSET 0.75 -1.75 -1.85
                      CHANNELS 6 Xposition Yposition Zposition Zrotation Xrotation Yrotation
                      JOINT RightHandPinky1
                      {
                        OFFSET 0 -7.15 -1
                        CHANNELS 6 Xposition Yposition Zposition Zrotation Xrotation Yrotation
                        JOINT RightHandPinky2
                        {
                          OFFSET 0 -3 0
                          CHANNELS 6 Xposition Yposition Zposition Zrotation Xrotation Yrotation
                          JOINT RightHandPinky3
                          {
                            OFFSET 0 -2.35 0
                            CHANNELS 6 Xposition Yposition Zposition Zrotation Xrotation Yrotation
                            End Site
                            {
                              OFFSET 0 -2.1 0
                            }
                          }
                        }
                      }
                    }
                  }
                }
              }
            }
          }
        }
      }
    }
  }
  JOINT LeftUpLeg
  {
    OFFSET 8 0 0
    CHANNELS 6 Xposition Yposition Zposition Zrotation Xrotation Yrotation
    JOINT LeftLeg
    {
      OFFSET 0 -45 -1
      CHANNELS 6 Xposition Yposition Zposition Zrotation Xrotation Yrotation
      JOINT LeftFoot
      {
        OFFSET 0 -41 -2
        CHANNELS 6 Xposition Yposition Zposition Zrotation Xrotation Yrotation
        JOINT LeftToeBase
        {
          OFFSET 0 -7.5 12.5
          CHANNELS 6 Xposition Yposition Zposition Zrotation Xrotation Yrotation
          JOINT LeftFootToe
          {
            OFFSET 0 0 4
            CHANNELS 6 Xposition Yposition Zposition Zrotation Xrotation Yrotation
            End Site
            {
              OFFSET 0 0 0
            }
          }
        }
      }
    }
  }
  JOINT RightUpLeg
  {
    OFFSET -8 0 0
    CHANNELS 6 Xposition Yposition Zposition Zrotation Xrotation Yrotation
    JOINT RightLeg
    {
      OFFSET 0 -45 -1
      CHANNELS 6 Xposition Yposition Zposition Zrotation Xrotation Yrotation
      JOINT RightFoot
      {
        OFFSET 0 -41 -2
        CHANNELS 6 Xposition Yposition Zposition Zrotation Xrotation Yrotation
        JOINT RightToeBase
        {
          OFFSET 0 -7.5 12.5
          CHANNELS 6 Xposition Yposition Zposition Zrotation Xrotation Yrotation
          JOINT RightFootToe
          {
            OFFSET 0 0 4
            CHANNELS 6 Xposition Yposition Zposition Zrotation Xrotation Yrotation
            End Site
            {
              OFFSET 0 0 0
            }
          }
        }
      }
    }
  }
}
MOTION
Frames:	3
Frame Time:	0.0111111
239.998 91.2837 947.36 -2.62249 -2.93998 70.1582 0 8 0 19.0713 20.0844 10.0069 1.13687e-13 8 0 7.52109 5.8138 9.40636 0 8 0 1.74172 -1.28411 -56.8999 0 8 0 3.86284 2.73666 4.77956 5.68434e-14 17 0 -5.68169 -6.27165 -7.49124 0 10.8 0 -14.7565 -13.3803 -18.7507 5 17 -1.13687e-13 -17.4928 -8.242 16.4254 6.45 0 0 4.42862 -0.677332 -2.9689 6.45 1.13687e-13 0 -3.75244 -47.1922 9.0122 0 -32.4 -2 -7.17168 -29.0761 21.6324 0 -25.65 2 -3.84334 -0.478212 -6.80991 -0.5 -1.5 2.65 -8.49813 -2.61084 -3.26224 0 -3.8 3.7 -0.0950609 27.1697 0.00302995 0 -3 2.7 -0.000344375 -0.256427 0.0122537 0 -1.9 1.6 6.36111e-15 5.86415e-15 3.18055e-15 -1.13687e-13 -8.3 1.9 -0.00395894 -0.580973 -0.005298 0 -4.5 -2.84217e-14 4.78586e-06 -0.0317045 -0.00511382 -1.13687e-13 -3.4 0 -6.37557e-07 -0.0168995 -0.00938974 -0.25 -2.2 0.4 6.36111e-15 5.86415e-15 3.18055e-15 1.13687e-13 -8.3 1 -18.2983 4.226 1.74087 0 -4.65 0 -0.00931736 -0.153272 -0.0854523 1.13687e-13 -3.3 0 -0.000124542 -0.128214 -0.0930601 -0.5 -2.15 -0.8 6.36111e-15 5.86415e-15 3.18055e-15 1.13687e-13 -7.75 -0.2 -45.1695 1.84183 3.73449 -2.84217e-14 -3.8 0 -4.18498e-05 0.00339456 0.00481409 5.68434e-14 -3.4 0 1.0261e-05 0.00840611 -0.0111695 -0.75 -1.75 -1.85 6.36111e-15 5.86415e-15 3.18055e-15 1.13687e-13 -7.15 -1 -63.2672 1.09181 5.69748 -2.84217e-14 -3 -5.68434e-14 0.00654214 0.269129 -0.282005 -1.42109e-14 -2.35 0 0.00135343 0.300129 -0.27833 -5 17 0 -12.5602 2.2655 3.39856 -6.45 0 -1.13687e-13 -0.432737 0.819116 -4.52798 -6.45 0 0 -32.4248 -47.7683 -15.2446 0 -32.4 -2 18.7301 -47.7048 25.9902 -1.13687e-13 -25.65 2 -24.3049 -8.99007 18.9226 0.5 -1.5 2.65 10.3213 -13.6762 7.73487 1.13687e-13 -3.8 3.7 0.180166 8.18407 -0.0630238 0 -3 2.7 0.0240749 -0.331141 -0.0316323 0 -1.9 1.6 -5.29669e-31 6.36111e-15 4.77083e-15 -1.13687e-13 -8.3 1.9 2.12756 11.9634 -0.25478 -5.68434e-14 -4.5 -2.84217e-14 22.3109 0.0370059 -0.000450764 1.13687e-13 -3.4 5.68434e-14 17.3599 0.0224608 -0.00783386 0.25 -2.2 0.4 -5.29669e-31 6.36111e-15 4.77083e-15 0 -8.3 1 10.0105 14.8028 -1.72324 -1.13687e-13 -4.65 5.68434e-14 51.217 0.0254414 -0.0158171 -2.27374e-13 -3.3 0 35.3942 0.00105614 -0.0184416 0.5 -2.15 -0.8 -5.29669e-31 6.36111e-15 4.77083e-15 -5.68434e-14 -7.75 -0.2 23.5414 15.2395 -4.35708 1.13687e-13 -3.8 0 66.7671 -0.00673283 -0.0171384 1.13687e-13 -3.4 -2.84217e-14 48.4276 -0.00521935 0.012136 0.75 -1.75 -1.85 -7.94503e-31 9.54166e-15 4.77083e-15 -5.68434e-14 -7.15 -1 47.7861 5.57582 -5.23211 1.13687e-13 -3 0 39.4793 -0.02764 -0.0486444 0 -2.35 -2.84217e-14 27.7817 -0.0287575 -0.018239 8 3.55271e-14 0 8.35508 -19.7469 4.69288 0 -45 -1 0.00534321 5.84507 -0.597762 1.13687e-13 -41 -2 -2.64597 6.84161 -2.69153 0 -7.5 12.5 4.96962e-16 0.549973 -0 1.13687e-13 0 4 2.52325 -7.15612 7.74314 -8 7.10543e-15 1.13687e-13 2.18028 -14.9193 -36.754 5.68434e-14 -45 -1 0.109134 17.03 -1.10097 -5.68434e-14 -41 -2 -6.83793 -5.40149 15.577 0 -7.5 12.5 -1.94126e-19 4.48092e-09 -0 0 3.46945e-18 4 8.33242 -5.30076 14.6528 
240.001 91.2872 947.368 -2.62221 -2.94184 70.1849 -1.13687e-13 8 0 19.0748 20.0835 10.0066 0 8 5.68434e-14 7.528 5.81198 9.40613 0 8 4.26326e-14 1.74519 -1.28514 -56.9001 5.68434e-14 8 0 3.86623 2.73648 4.77935 1.13687e-13 17 -1.13687e-13 -5.68359 -6.28468 -7.49108 -5.68434e-14 10.8 0 -14.7597 -13.411 -18.7539 5 17 -1.13687e-13 -17.535 -8.27718 16.4648 6.45 0 5.68434e-14 4.42871 -0.704398 -2.94818 6.45 0 0 -3.81021 -47.3675 8.73357 0 -32.4 -2 -6.92942 -28.954 21.7316 0 -25.65 2 -2.97349 -0.994465 -6.8595 -0.5 -1.5 2.65 -8.72339 -2.40341 -3.56962 0 -3.8 3.7 -0.104945 26.8422 0.00255944 -1.13687e-13 -3 2.7 -0.00161459 -0.266951 0.0129033 1.13687e-13 -1.9 1.6 3.18055e-15 -1.98785e-15 3.57812e-15 0 -8.3 1.9 -0.00338438 -0.494032 -0.00556147 -1.13687e-13 -4.5 0 -7.16262e-07 -0.0320105 -0.00516386 0 -3.4 0 -5.17731e-07 -0.0170933 -0.00968602 -0.25 -2.2 0.4 3.18055e-15 -1.98785e-15 3.57812e-15 -1.13687e-13 -8.3 1 -18.6899 4.37531 1.8012 1.13687e-13 -4.65 0 -0.00934701 -0.152644 -0.085953 0 -3.3 5.68434e-14 -0.000123604 -0.127622 -0.0931998 -0.5 -2.15 -0.8 3.18055e-15 -1.98785e-15 3.57812e-15 0 -7.75 -0.2 -45.5859 1.89867 3.81662 -2.84217e-14 -3.8 0 -4.37406e-05 0.00447975 0.00504939 1.13687e-13 -3.4 -5.68434e-14 1.06063e-05 0.00876925 -0.0099205 -0.75 -1.75 -1.85 3.18055e-15 -1.98785e-15 3.57812e-15 0 -7.15 -1 -63.8997 0.970107 5.74915 -1.42109e-14 -3 0 0.00656034 0.2692 -0.282075 1.42109e-14 -2.35 0 0.00135443 0.300184 -0.278408 -5 17 -1.13687e-13 -12.5887 2.23859 3.4064 -6.45 0 0 -0.438632 0.82617 -4.54693 -6.45 0 -1.13687e-13 -32.1079 -47.7789 -14.8792 0 -32.4 -2 18.9682 -48.1293 26.4327 0 -25.65 2 -25.6639 -8.41687 19.9298 0.5 -1.5 2.65 11.3225 -12.8573 8.65304 1.13687e-13 -3.8 3.7 0.199485 8.01513 -0.0727417 0 -3 2.7 0.024083 -0.399819 -0.0315734 5.68434e-14 -1.9 1.6 3.18055e-15 3.18055e-15 -1.59028e-15 -5.68434e-14 -8.3 1.9 1.83873 11.1217 -0.207334 0 -4.5 0 23.3477 0.0408056 0.00328555 0 -3.4 -2.84217e-14 18.015 0.0230615 -0.00596593 0.25 -2.2 0.4 3.18055e-15 3.18055e-15 -1.59028e-15 0 -8.3 1 8.35137 14.0101 -1.40097 0 -4.65 5.68434e-14 52.4902 0.00791067 -0.00225565 0 -3.3 -5.68434e-14 36.2533 0.00103644 -0.0045824 0.5 -2.15 -0.8 3.18055e-15 3.18055e-15 -1.59028e-15 -5.68434e-14 -7.75 -0.2 20.9177 15.1073 -3.84724 0 -3.8 -5.68434e-14 67.2047 -0.00512256 -0.00876388 -1.13687e-13 -3.4 -2.84217e-14 48.8639 -0.0037912 0.0120763 0.75 -1.75 -1.85 3.18055e-15 3.18055e-15 -1.59028e-15 -5.68434e-14 -7.15 -1 45.1406 6.11475 -5.02143 0 -3 2.84217e-14 40.7732 -0.0337953 -0.0561031 0 -2.35 -2.84217e-14 28.5863 -0.0350511 -0.0231182 8 4.9738e-14 -1.13687e-13 8.35161 -19.7118 4.69179 0 -45 -1 0.00414131 5.76944 -0.59369 1.13687e-13 -41 -2 -2.64831 6.89983 -2.72079 -1.13687e-13 -7.5 12.5 -6.88753e-17 0.549729 -3.1807e-15 -1.13687e-13 0 4 2.52547 -7.16659 7.74327 -8 0 -1.13687e-13 2.19542 -14.9054 -36.7403 1.13687e-13 -45 -1 0.10817 16.9992 -1.09878 0 -41 -2 -6.83573 -5.3878 15.5849 -1.13687e-13 -7.5 12.5 7.49722e-25 4.50193e-09 -9.54166e-15 0 1.38778e-17 4 8.31925 -5.28869 14.6527 
240.008 91.2922 947.375 -2.62224 -2.94584 70.21 1.13687e-13 8 -1.13687e-13 19.0749 20.0826 10.0065 0 8 0 7.53423 5.81017 9.40591 0 8 1.42109e-14 1.74838 -1.28617 -56.9003 -5.68434e-14 8 0 3.86921 2.73629 4.77915 0 17 0 -5.68591 -6.29785 -7.49448 -5.68434e-14 10.8 0 -14.7645 -13.4407 -18.7651 5 17 0 -17.5789 -8.30915 16.4956 6.45 -5.68434e-14 0 4.4269 -0.730412 -2.93574 6.45 0 -1.13687e-13 -3.85219 -47.5532 8.4883 1.13687e-13 -32.4 -2 -6.69168 -28.7966 21.8266 0 -25.65 2 -2.12248 -1.50805 -6.91005 -0.5 -1.5 2.65 -8.95917 -2.13715 -3.90895 1.13687e-13 -3.8 3.7 -0.113937 26.4848 0.00209094 0 -3 2.7 -0.00342671 -0.26697 0.0135462 0 -1.9 1.6 -3.18055e-15 -7.25564e-15 -2.18663e-15 0 -8.3 1.9 -0.00284047 -0.418804 -0.00581096 -1.13687e-13 -4.5 -2.84217e-14 -6.84134e-06 -0.032303 -0.00521472 0 -3.4 -2.84217e-14 -4.00251e-07 -0.0172829 -0.00998592 -0.25 -2.2 0.4 -3.18055e-15 -7.25564e-15 -2.18663e-15 -1.13687e-13 -8.3 1 -19.0783 4.51733 1.86107 1.13687e-13 -4.65 0 -0.00937632 -0.152015 -0.0863339 0 -3.3 -5.68434e-14 -0.000122655 -0.12703 -0.0933367 -0.5 -2.15 -0.8 -3.18055e-15 -7.25564e-15 -2.18663e-15 1.13687e-13 -7.75 -0.2 -45.9859 1.95926 3.89944 -2.84217e-14 -3.8 0 -4.57128e-05 0.00544849 0.0052821 2.84217e-14 -3.4 0 1.09598e-05 0.00912275 -0.00883831 -0.75 -1.75 -1.85 -3.18055e-15 -7.25564e-15 -2.18663e-15 0 -7.15 -1 -64.5101 0.849877 5.7991 0 -3 0 0.00657853 0.269271 -0.282143 2.84217e-14 -2.35 5.68434e-14 0.00135542 0.300239 -0.278484 -5 17 -1.13687e-13 -12.6132 2.2186 3.40298 -6.45 0 0 -0.443466 0.831788 -4.55977 -6.45 1.13687e-13 0 -31.771 -47.7997 -14.4524 0 -32.4 -2 19.1886 -48.5176 26.7992 -1.13687e-13 -25.65 2 -26.7741 -7.84899 20.7558 0.5 -1.5 2.65 12.1472 -11.8151 9.66043 0 -3.8 3.7 0.241607 8.08073 -0.0859637 0 -3 2.7 0.0240866 -0.476478 -0.0315135 5.68434e-14 -1.9 1.6 3.18055e-15 -3.18055e-15 -0 0 -8.3 1.9 1.58466 10.263 -0.15982 0 -4.5 -5.68434e-14 24.2939 0.0442459 0.00964295 0 -3.4 -2.84217e-14 18.603 0.0235951 -0.00254462 0.25 -2.2 0.4 3.18055e-15 -3.18055e-15 -0 5.68434e-14 -8.3 1 7.10258 13.1111 -1.14738 0 -4.65 2.84217e-14 53.101 0.0086281 -0.00157913 -2.27374e-13 -3.3 0 36.6924 0.00435265 -0.00469595 0.5 -2.15 -0.8 3.18055e-15 -3.18055e-15 -0 -5.68434e-14 -7.75 -0.2 18.4973 14.8676 -3.37771 1.13687e-13 -3.8 2.84217e-14 67.4975 -0.00355698 -0.00511678 -1.13687e-13 -3.4 -2.84217e-14 49.1606 -0.00229147 0.012016 0.75 -1.75 -1.85 3.18055e-15 3.18055e-15 -0 -5.68434e-14 -7.15 -1 42.5222 6.5668 -4.78026 0 -3 0 42.3967 -0.0427219 -0.0739188 0 -2.35 2.84217e-14 29.6217 -0.0465526 -0.0269475 8 1.42109e-14 0 8.34874 -19.6748 4.69053 -1.13687e-13 -45 -1 0.00316852 5.69577 -0.591612 0 -41 -2 -2.65169 6.95811 -2.74628 0 -7.5 12.5 -9.93923e-17 0.549485 -0 -1.13687e-13 0 4 2.52803 -7.17893 7.74343 -8 -7.10543e-15 0 2.2132 -14.8868 -36.7282 0 -45 -1 0.107029 16.9618 -1.09649 -5.68434e-14 -41 -2 -6.8316 -5.37134 15.5916 -1.13687e-13 -7.5 12.5 0 4.52293e-09 -0 0 0 4 8.30695 -5.26603 14.6523 
